<svg xmlns="http://www.w3.org/2000/svg" xmlns:xlink="http://www.w3.org/1999/xlink" viewBox="0 0 107.99 56.34"><defs><style>.a,.b,.c,.d,.e,.g,.h,.i{fill:none;}.b{stroke:#b3b4b4;}.b,.c,.d,.e,.h,.i{stroke-linecap:round;stroke-linejoin:round;}.c{stroke:#666766;}.d{stroke:#231f20;}.e{stroke:#00a14b;}.f{fill:#00a14b;}.g{stroke:#000001;stroke-miterlimit:10;stroke-width:0px;opacity:0;}.h{stroke:#a7a9ac;}.i{stroke:#7f3f98;}.j{fill:#7f3f98;}.k{clip-path:url(#a);}.l{clip-path:url(#b);}.m{clip-path:url(#c);}.n{clip-path:url(#d);}</style><clipPath id="a"><rect class="a" x="50.47" y="23.4" width="7.06" height="8.96"/></clipPath><clipPath id="b"><rect class="a" x="15.72" y="22.67" width="13" height="11"/></clipPath><clipPath id="c"><rect class="a" x="5.54" y="37.33" width="16" height="11"/></clipPath><clipPath id="d"><rect class="a" x="87.52" y="37.33" width="16" height="11"/></clipPath></defs><path class="b" d="M103.2,35.38"/><path class="b" d="M5.23,27.88"/><path class="a" d="M16.39,31.63"/><path class="c" d="M27.34,51.88c-.84-1.34-1.67-2.77.19-4.63"/><path class="d" d="M27.34,55.64c-2.83-2.83,3.58-4.81,0-8.39"/><line class="d" x1="27.44" y1="55.64" x2="71.73" y2="55.64"/><line class="d" x1="27.44" y1="47.25" x2="35.53" y2="47.25"/><path class="b" d="M24.44,49.25a50.27,50.27,0,0,1-8.72-.72"/><path class="b" d="M24.44,55.84c-14,0-21.22-5-23.94-7.51"/><line class="e" x1="24.43" y1="52.09" x2="15.4" y2="52.09"/><polygon class="f" points="11.66 52.09 16.94 49.93 15.69 52.09 16.94 54.24 11.66 52.09"/><polygon class="g" points="54.86 52.62 54.86 52.62 54.86 52.62 54.86 52.62 54.86 52.62 54.86 52.62 54.86 52.62 54.86 52.62 54.86 52.62 54.86 52.62 54.86 52.62 54.86 52.62 54.86 52.62 54.86 52.62 54.86 52.62 54.86 52.62 54.86 52.62 54.86 52.62 54.86 52.62 54.86 52.62 54.86 52.62 54.86 52.62 54.86 52.62 54.86 52.62 54.86 52.62 54.86 52.62 54.86 52.62 54.86 52.62 54.86 52.62 54.86 52.62 54.86 52.62 54.86 52.62 54.86 52.62 54.86 52.62 54.86 52.62 54.86 52.62 54.86 52.62 54.86 52.62 54.86 52.62 54.86 52.62 54.86 52.62 54.86 52.62 54.86 52.62 54.86 52.62 54.86 52.62 54.86 52.62 54.86 52.62 54.86 52.62 54.86 52.62 54.86 52.62 54.86 52.62 54.86 52.62 54.86 52.62 54.86 52.62 54.86 52.62 54.86 52.62 54.86 52.62 54.86 52.62 54.86 52.62 54.86 52.62 54.86 52.62 54.86 52.62 54.86 52.62 54.86 52.62 54.86 52.62 54.86 52.62 54.86 52.62 54.86 52.62 54.86 52.62 54.86 52.62 54.86 52.62 54.86 52.62 54.86 52.62 54.86 52.62 54.86 52.62 54.86 52.62 54.86 52.62 54.86 52.62 54.86 52.62 54.86 52.62 54.86 52.62 54.86 52.62 54.86 52.62 54.86 52.62 54.86 52.62 54.86 52.62 54.86 52.62 54.86 52.62 54.86 52.62 54.86 52.62 54.86 52.62 54.86 52.62 54.86 52.62 54.86 52.62 54.86 52.62 54.86 52.62 54.86 52.62 54.86 52.62 54.86 52.62 54.86 52.62 54.86 52.62 54.86 52.62 54.86 52.62 54.86 52.62 54.86 52.62 54.86 52.62 54.86 52.62 54.86 52.62 54.86 52.62 54.86 52.62 54.86 52.62 54.86 52.62 54.86 52.62 54.86 52.62 54.86 52.62 54.86 52.62 54.86 52.62 54.86 52.62 54.86 52.62 54.86 52.62 54.86 52.62 54.86 52.62 54.86 52.62 54.86 52.62 54.86 52.62 54.86 52.62 54.86 52.62 54.86 52.62 54.86 52.62 54.86 52.62 54.86 52.62 54.86 52.62 54.86 52.62 54.86 52.62 54.86 52.62"/><path class="c" d="M80.75,51c.83,1.34,1.67,2.77-.19,4.63"/><path class="d" d="M80.75,47.25c2.82,2.83-3.58,4.81,0,8.39"/><line class="d" x1="36.46" y1="55.64" x2="80.75" y2="55.64"/><line class="d" x1="72.89" y1="47.25" x2="80.75" y2="47.25"/><path class="b" d="M83.56,54.92a50.15,50.15,0,0,1,8.71.72"/><path class="b" d="M83.56,48.33c14,0,21.22,5,23.93,7.51"/><line class="e" x1="83.56" y1="52.09" x2="92.59" y2="52.09"/><polygon class="f" points="96.33 52.09 91.06 54.24 92.31 52.09 91.06 49.93 96.33 52.09"/><line class="h" x1="35.53" y1="5.63" x2="72.89" y2="5.63"/><line class="d" x1="35.53" y1="47.25" x2="35.53" y2="0.5"/><line class="d" x1="72.89" y1="47.25" x2="72.89" y2="0.5"/><path class="d" d="M88.89,3.65"/><line class="i" x1="29.85" y1="51.88" x2="35.02" y2="51.88"/><line class="i" x1="29.85" y1="5.63" x2="34.46" y2="5.63"/><line class="i" x1="32.17" y1="51.88" x2="32.17" y2="9.37"/><polygon class="j" points="32.17 5.63 34.32 10.9 32.17 9.65 30.01 10.9 32.17 5.63"/><g class="k"><path d="M56.38,26a2.72,2.72,0,0,0-.59-.95,2,2,0,0,0-1.44-.48,2.66,2.66,0,0,0-1.9.7,3.09,3.09,0,0,0-.66,1.17,5.5,5.5,0,0,0-.23,1.66,3.9,3.9,0,0,0,1,2.77,2.62,2.62,0,0,0,1.9.7,3.82,3.82,0,0,0,2.12-.76l.19.33a4.89,4.89,0,0,1-2.71,1,3.42,3.42,0,0,1-2.47-.84,4.2,4.2,0,0,1-1.09-3,4,4,0,0,1,1-3A4.42,4.42,0,0,1,54.74,24a2.71,2.71,0,0,1,2,.72,3.45,3.45,0,0,1,.45.56l-.65.66Z"/></g><g class="l"><path d="M16.82,31l-.08-.08c0-1.59.08-3.19.08-4.79q0-1-.06-2a.53.53,0,0,0-.31-.49,2.4,2.4,0,0,0-.53-.12v-.28h3a5.49,5.49,0,0,1,1.22.11,1.71,1.71,0,0,1,.77.32,1.79,1.79,0,0,1,.63,1.44,2.45,2.45,0,0,1-.73,1.77,2,2,0,0,1-.84.5,5.07,5.07,0,0,1-1.22.24l-.87.07c-.16,0-.2.18-.2.3,0,.9.07,1.81.08,2.7Zm1.23-7.33a.3.3,0,0,0-.31.29c0,1-.06,2-.06,3,0,.11.07.25.19.25A3.81,3.81,0,0,0,19,27a1.94,1.94,0,0,0,.81-.44,2,2,0,0,0,.6-1.4A1.56,1.56,0,0,0,20,24a1.35,1.35,0,0,0-.59-.31,3.76,3.76,0,0,0-.94-.1Z"/><path d="M28,28.37a2,2,0,0,0-.5-.72,1.86,1.86,0,0,0-1.24-.36,2.44,2.44,0,0,0-1.63.53,2.23,2.23,0,0,0-.57.89,3.91,3.91,0,0,0-.2,1.26,2.74,2.74,0,0,0,.91,2.11,2.42,2.42,0,0,0,1.62.53A3.65,3.65,0,0,0,28.18,32l.16.25a4.57,4.57,0,0,1-2.33.78,3.18,3.18,0,0,1-2.12-.64,3,3,0,0,1-.94-2.3,2.93,2.93,0,0,1,.88-2.28,4.12,4.12,0,0,1,2.71-.94,2.55,2.55,0,0,1,1.74.54,2.17,2.17,0,0,1,.38.43l-.55.5Z"/></g><g class="m"><path d="M13,47.43a5.73,5.73,0,0,1-1.62.37A2.12,2.12,0,0,1,10,47.11a11.52,11.52,0,0,1-1.13-1.38A2.76,2.76,0,0,1,6.68,45a4,4,0,0,1-1-2.86,4.68,4.68,0,0,1,1.17-3.36,4.09,4.09,0,0,1,2.92-1.1,3.29,3.29,0,0,1,2.38.86,3.88,3.88,0,0,1,1,2.79,6,6,0,0,1-.29,1.93A3.57,3.57,0,0,1,12,44.6a4.06,4.06,0,0,1-2,1c.24.33.46.66.71,1a2.31,2.31,0,0,0,.2.24,1.73,1.73,0,0,0,1.22.51c.08,0,.62-.1.92-.16Zm-2-2.86a3.81,3.81,0,0,0,1-2.78A5.8,5.8,0,0,0,11.77,40,3.13,3.13,0,0,0,11,38.77a2.31,2.31,0,0,0-1.67-.63,2.5,2.5,0,0,0-1.77.64A3.09,3.09,0,0,0,6.88,40a6.18,6.18,0,0,0-.24,1.76,3.81,3.81,0,0,0,1,2.73,2.33,2.33,0,0,0,1.58.74A2.51,2.51,0,0,0,11.07,44.57Z"/><path d="M20.22,43a2.07,2.07,0,0,0-.5-.73A1.91,1.91,0,0,0,18.48,42a2.45,2.45,0,0,0-1.63.54,2.13,2.13,0,0,0-.57.89,3.58,3.58,0,0,0-.2,1.26,2.73,2.73,0,0,0,.91,2.1,2.41,2.41,0,0,0,1.62.54,3.5,3.5,0,0,0,1.82-.58l.17.25a4.58,4.58,0,0,1-2.34.79,3.16,3.16,0,0,1-2.11-.64,3,3,0,0,1-.94-2.31,2.91,2.91,0,0,1,.88-2.28,4.1,4.1,0,0,1,2.71-.94,2.6,2.6,0,0,1,1.74.54,2.67,2.67,0,0,1,.38.44l-.56.5Z"/></g><g class="n"><path d="M95,47.43a5.88,5.88,0,0,1-1.63.37A2.14,2.14,0,0,1,92,47.11a11.52,11.52,0,0,1-1.13-1.38A2.76,2.76,0,0,1,88.66,45a4,4,0,0,1-1-2.86,4.64,4.64,0,0,1,1.17-3.36,4.07,4.07,0,0,1,2.91-1.1,3.32,3.32,0,0,1,2.39.86,3.91,3.91,0,0,1,1,2.79,6.26,6.26,0,0,1-.28,1.93A3.47,3.47,0,0,1,94,44.6a4,4,0,0,1-2,1c.24.33.47.66.72,1a1.43,1.43,0,0,0,.19.24,1.73,1.73,0,0,0,1.23.51c.08,0,.61-.1.92-.16Zm-2-2.86a3.81,3.81,0,0,0,1-2.78A5.8,5.8,0,0,0,93.76,40,3.24,3.24,0,0,0,93,38.77a2.34,2.34,0,0,0-1.67-.63,2.47,2.47,0,0,0-1.77.64,3,3,0,0,0-.7,1.22,6.17,6.17,0,0,0-.23,1.76,3.8,3.8,0,0,0,1,2.73,2.35,2.35,0,0,0,1.58.74A2.49,2.49,0,0,0,93.05,44.57Z"/><path d="M102.2,43a1.94,1.94,0,0,0-.5-.73,1.91,1.91,0,0,0-1.24-.36,2.45,2.45,0,0,0-1.63.54,2.13,2.13,0,0,0-.57.89,3.58,3.58,0,0,0-.2,1.26,2.73,2.73,0,0,0,.91,2.1,2.42,2.42,0,0,0,1.62.54,3.57,3.57,0,0,0,1.83-.58l.16.25a4.58,4.58,0,0,1-2.33.79,3.17,3.17,0,0,1-2.12-.64,3,3,0,0,1-.94-2.31,3,3,0,0,1,.88-2.28,4.12,4.12,0,0,1,2.71-.94,2.6,2.6,0,0,1,1.74.54,2,2,0,0,1,.38.44l-.55.5Z"/></g></svg>