<svg xmlns="http://www.w3.org/2000/svg" xmlns:xlink="http://www.w3.org/1999/xlink" viewBox="0 0 98.97 40.06"><defs><style>.a,.b,.c,.d,.e,.g,.i{fill:none;}.b{stroke:#666766;}.b,.c,.d,.e,.g{stroke-linecap:round;stroke-linejoin:round;}.c{stroke:#231f20;}.d{stroke:#b3b4b4;}.e{stroke:#7f3f98;}.f{fill:#7f3f98;}.g{stroke:#00a14b;}.h{fill:#00a14b;}.i{stroke:#000001;stroke-miterlimit:10;stroke-width:0px;opacity:0;}.j{clip-path:url(#a);}.k{clip-path:url(#b);}.l{clip-path:url(#c);}.m{clip-path:url(#d);}</style><clipPath id="a" transform="translate(0 -1.85)"><rect class="a" x="46.74" y="1.02" width="4" height="8.96"/></clipPath><clipPath id="b" transform="translate(0 -1.85)"><rect class="a" x="83.25" y="19.69" width="13" height="11"/></clipPath><clipPath id="c" transform="translate(0 -1.85)"><rect class="a" x="7.98" y="19.69" width="13" height="11"/></clipPath><clipPath id="d" transform="translate(0 -1.85)"><rect class="a" x="43.74" y="31.63" width="10" height="11"/></clipPath></defs><path class="b" d="M71.73,15.06c.83,1.34,1.67,2.77-.19,4.63" transform="translate(0 -1.85)"/><path class="c" d="M71.73,11.3c2.82,2.83-3.58,4.81,0,8.39" transform="translate(0 -1.85)"/><path class="b" d="M27.34,15.93c-.84-1.34-1.67-2.77.19-4.63" transform="translate(0 -1.85)"/><path class="c" d="M27.34,19.69c-2.83-2.83,3.58-4.81,0-8.39" transform="translate(0 -1.85)"/><line class="c" x1="27.44" y1="17.84" x2="71.73" y2="17.84"/><line class="c" x1="27.44" y1="9.45" x2="71.73" y2="9.45"/><path class="d" d="M74.54,19a50.15,50.15,0,0,1,8.71.72" transform="translate(0 -1.85)"/><path class="d" d="M74.54,12.38c14,0,21.21,5,23.93,7.51" transform="translate(0 -1.85)"/><path class="d" d="M24.44,13.3a50.27,50.27,0,0,1-8.72-.72" transform="translate(0 -1.85)"/><path class="d" d="M24.44,19.89c-14,0-21.22-5-23.94-7.51" transform="translate(0 -1.85)"/><line class="e" x1="26.41" y1="22.32" x2="26.41" y2="37.49"/><line class="e" x1="72.66" y1="22.32" x2="72.66" y2="37.49"/><line class="e" x1="26.41" y1="27.05" x2="68.91" y2="27.05"/><polygon class="f" points="72.66 27.05 67.38 29.2 68.64 27.05 67.38 24.9 72.66 27.05"/><line class="g" x1="24.43" y1="14.29" x2="15.4" y2="14.29"/><polygon class="h" points="11.66 14.29 16.94 12.13 15.69 14.29 16.94 16.44 11.66 14.29"/><polygon class="i" points="50.13 35.28 50.13 35.28 50.13 35.28 50.13 35.28 50.13 35.28 50.13 35.28 50.13 35.28 50.13 35.28 50.13 35.28 50.13 35.28 50.13 35.28 50.13 35.28 50.13 35.28 50.13 35.28 50.13 35.28 50.13 35.28 50.13 35.28 50.13 35.28 50.13 35.28 50.13 35.28 50.13 35.28 50.13 35.28 50.13 35.28 50.13 35.28 50.13 35.28 50.13 35.28 50.13 35.28 50.13 35.28 50.13 35.28 50.13 35.28 50.13 35.28 50.13 35.28 50.13 35.28 50.13 35.28 50.13 35.28 50.13 35.28 50.13 35.28 50.13 35.28 50.13 35.28 50.13 35.28 50.13 35.28 50.13 35.28 50.13 35.28 50.13 35.28 50.13 35.28 50.13 35.28 50.13 35.28 50.13 35.28 50.13 35.28 50.13 35.28 50.13 35.28 50.13 35.28 50.13 35.28 50.13 35.28 50.13 35.28 50.13 35.28 50.13 35.28 50.13 35.28 50.13 35.28 50.13 35.28 50.13 35.28 50.13 35.28 50.13 35.28 50.13 35.28 50.13 35.28 50.13 35.28 50.13 35.28 50.13 35.28 50.13 35.28 50.13 35.28 50.13 35.28 50.13 35.28 50.13 35.28 50.13 35.28 50.13 35.28 50.13 35.28 50.13 35.28 50.13 35.28 50.13 35.28 50.13 35.28 50.13 35.28 50.13 35.28 50.13 35.28 50.13 35.28 50.13 35.28 50.13 35.28 50.13 35.28 50.13 35.28 50.13 35.28 50.13 35.28 50.13 35.28 50.13 35.28 50.13 35.28 50.13 35.28 50.13 35.28 50.13 35.28 50.13 35.28 50.13 35.28 50.13 35.28 50.13 35.28 50.13 35.28 50.13 35.28 50.13 35.28 50.13 35.28 50.13 35.28 50.13 35.28 50.13 35.28 50.13 35.28 50.13 35.28 50.13 35.28 50.13 35.28 50.13 35.28 50.13 35.28 50.13 35.28 50.13 35.28 50.13 35.28 50.13 35.28 50.13 35.28 50.13 35.28 50.13 35.28 50.13 35.28 50.13 35.28 50.13 35.28 50.13 35.28 50.13 35.28 50.13 35.28 50.13 35.28 50.13 35.28 50.13 35.28 50.13 35.28 50.13 35.28 50.13 35.28 50.13 35.28 50.13 35.28 50.13 35.28"/><line class="g" x1="74.54" y1="14.29" x2="83.57" y2="14.29"/><polygon class="h" points="87.31 14.29 82.04 16.44 83.29 14.29 82.04 12.13 87.31 14.29"/><g class="j"><path d="M47.31,9.61V9.32c.23-.05.49-.1.69-.16a.46.46,0,0,0,.3-.35c0-.13,0-.49,0-.73V4c0-.44,0-.87,0-1.31A.35.35,0,0,0,48,2.33l-.76-.16V1.85h3v.31c-.27,0-.78.18-.79.18a.29.29,0,0,0-.25.28v.84c0,1.41,0,3.07,0,4.22a10.68,10.68,0,0,0,0,1.13.39.39,0,0,0,.31.34l.74.19,0,.27Z" transform="translate(0 -1.85)"/></g><g class="k"><path d="M91.11,29.79a5.85,5.85,0,0,1-1.63.36,2.14,2.14,0,0,1-1.42-.69,11.52,11.52,0,0,1-1.13-1.38,2.76,2.76,0,0,1-2.18-.78,4,4,0,0,1-1-2.86,4.68,4.68,0,0,1,1.17-3.36A4.11,4.11,0,0,1,87.8,20a3.36,3.36,0,0,1,2.39.86,3.91,3.91,0,0,1,1,2.79,6.26,6.26,0,0,1-.28,1.93,3.47,3.47,0,0,1-.8,1.39,3.94,3.94,0,0,1-2,1c.24.33.47.66.72,1a1.43,1.43,0,0,0,.19.24,1.73,1.73,0,0,0,1.22.51c.08,0,.62-.1.92-.16Zm-2-2.87a3.8,3.8,0,0,0,1-2.78,5.69,5.69,0,0,0-.26-1.74,3.19,3.19,0,0,0-.77-1.28,2.3,2.3,0,0,0-1.66-.63,2.47,2.47,0,0,0-1.77.64,3.06,3.06,0,0,0-.7,1.22,6.18,6.18,0,0,0-.24,1.76,3.85,3.85,0,0,0,1,2.74,2.34,2.34,0,0,0,1.58.73A2.51,2.51,0,0,0,89.14,26.92Z" transform="translate(0 -1.85)"/><path d="M95.75,24.29l-.68.14a.24.24,0,0,0-.21.22v.64c0,1.07,0,2.33,0,3.21,0,.28,0,.57,0,.85a.32.32,0,0,0,.28.26l.64.15,0,.21H93.22v-.23a4.72,4.72,0,0,0,.59-.12.36.36,0,0,0,.26-.27c0-.09,0-.37,0-.55s0-2.09,0-3.13c0-.34,0-.67,0-1a.27.27,0,0,0-.21-.25l-.67-.12v-.24h2.58Z" transform="translate(0 -1.85)"/></g><g class="l"><path d="M15.83,29.79a5.71,5.71,0,0,1-1.62.36,2.1,2.1,0,0,1-1.42-.69,12.66,12.66,0,0,1-1.14-1.38,2.77,2.77,0,0,1-2.18-.78,4,4,0,0,1-1-2.86,4.68,4.68,0,0,1,1.17-3.36A4.09,4.09,0,0,1,12.53,20a3.34,3.34,0,0,1,2.38.86,3.87,3.87,0,0,1,.95,2.79,6,6,0,0,1-.28,1.93A3.57,3.57,0,0,1,14.79,27a4,4,0,0,1-2,1c.23.33.46.66.71,1l.19.24a1.75,1.75,0,0,0,1.23.51c.08,0,.61-.1.92-.16Zm-2-2.87a3.83,3.83,0,0,0,1-2.78,5.69,5.69,0,0,0-.26-1.74,3.28,3.28,0,0,0-.76-1.28,2.32,2.32,0,0,0-1.67-.63,2.48,2.48,0,0,0-1.77.64,3.16,3.16,0,0,0-.69,1.22,6.18,6.18,0,0,0-.24,1.76,3.81,3.81,0,0,0,1,2.74,2.32,2.32,0,0,0,1.58.73A2.51,2.51,0,0,0,13.87,26.92Z" transform="translate(0 -1.85)"/><path d="M20.47,24.29l-.68.14a.25.25,0,0,0-.21.22v.64c0,1.07,0,2.33,0,3.21,0,.28,0,.57,0,.85a.32.32,0,0,0,.27.26l.64.15,0,.21H17.94v-.23a4.9,4.9,0,0,0,.6-.12.34.34,0,0,0,.25-.27c0-.09,0-.37,0-.55s0-2.09,0-3.13a8.28,8.28,0,0,0,0-1,.27.27,0,0,0-.21-.25s-.44-.07-.66-.12v-.24h2.57Z" transform="translate(0 -1.85)"/></g><g class="m"><path d="M45,39.91l-.08-.08c0-1.59.08-3.19.08-4.79,0-.67,0-1.34-.05-2a.56.56,0,0,0-.31-.49,1.94,1.94,0,0,0-.53-.12v-.29h3a5.64,5.64,0,0,1,1.23.12,1.55,1.55,0,0,1,.77.32A1.83,1.83,0,0,1,49.72,34,2.46,2.46,0,0,1,49,35.78a2.16,2.16,0,0,1-.84.5,5.7,5.7,0,0,1-1.23.24l-.86.06c-.16,0-.2.19-.2.31,0,.9.06,1.81.08,2.7Zm1.24-7.33a.3.3,0,0,0-.32.29c0,1,0,2,0,3,0,.11.06.25.19.25a3.85,3.85,0,0,0,1.17-.17,1.9,1.9,0,0,0,.8-.44,2,2,0,0,0,.61-1.4A1.53,1.53,0,0,0,48.19,33a1.25,1.25,0,0,0-.59-.31,3.66,3.66,0,0,0-.94-.1Z" transform="translate(0 -1.85)"/><path d="M53.6,36.23l-.68.14a.25.25,0,0,0-.21.22v.64c0,1.07,0,2.33,0,3.21,0,.29,0,.57,0,.86a.32.32,0,0,0,.28.25l.64.15,0,.21H51.07v-.23a4.72,4.72,0,0,0,.59-.12.33.33,0,0,0,.25-.26c0-.1,0-.38,0-.56s0-2.09,0-3.13c0-.34,0-.67,0-1a.28.28,0,0,0-.21-.26L51,36.24V36h2.58Z" transform="translate(0 -1.85)"/></g></svg>