<svg xmlns="http://www.w3.org/2000/svg" xmlns:xlink="http://www.w3.org/1999/xlink" viewBox="0 0 99.13 39.9"><defs><style>.a,.b,.c,.d,.e,.g,.j,.k{fill:none;}.b{stroke:#666766;}.b,.c,.d,.e,.g{stroke-linecap:round;stroke-linejoin:round;}.c{stroke:#231f20;}.d{stroke:#b3b4b4;}.e{stroke:#7f3f98;}.f{fill:#7f3f98;}.g{stroke:#00a14b;}.h{fill:#00a14b;}.i{clip-path:url(#a);}.j,.k{stroke:#000001;stroke-miterlimit:10;opacity:0;}.j{stroke-width:0px;}.k{stroke-width:0px;}.l{clip-path:url(#b);}.m{clip-path:url(#c);}.n{clip-path:url(#d);}</style><clipPath id="a" transform="translate(0 -1.89)"><rect class="a" x="44.13" y="31.42" width="13" height="11"/></clipPath><clipPath id="b" transform="translate(0 -1.89)"><rect class="a" x="46.08" y="1.02" width="7" height="8.96"/></clipPath><clipPath id="c" transform="translate(0 -1.89)"><rect class="a" x="2.05" y="19.12" width="16" height="11"/></clipPath><clipPath id="d" transform="translate(0 -1.89)"><rect class="a" x="84.11" y="19.12" width="16" height="11"/></clipPath></defs><path class="b" d="M71.73,15.51c.83,1.33,1.67,2.76-.19,4.62" transform="translate(0 -1.89)"/><path class="c" d="M71.73,11.75c2.82,2.82-3.58,4.8,0,8.38" transform="translate(0 -1.89)"/><path class="b" d="M27.34,16.37c-.84-1.34-1.67-2.76.19-4.62" transform="translate(0 -1.89)"/><path class="c" d="M27.34,20.13c-2.83-2.83,3.58-4.8,0-8.38" transform="translate(0 -1.89)"/><line class="c" x1="27.44" y1="18.24" x2="71.73" y2="18.24"/><line class="c" x1="27.44" y1="9.85" x2="71.73" y2="9.85"/><path class="d" d="M74.54,19.41a50.15,50.15,0,0,1,8.71.72" transform="translate(0 -1.89)"/><path class="d" d="M74.54,12.83c14,0,21.21,5,23.93,7.5" transform="translate(0 -1.89)"/><path class="d" d="M24.44,13.75A50.27,50.27,0,0,1,15.72,13" transform="translate(0 -1.89)"/><path class="d" d="M24.44,20.33c-14,0-21.22-5-23.94-7.5" transform="translate(0 -1.89)"/><line class="e" x1="26.41" y1="22.72" x2="26.41" y2="37.89"/><line class="e" x1="72.66" y1="22.72" x2="72.66" y2="37.89"/><line class="e" x1="26.41" y1="27.45" x2="68.91" y2="27.45"/><polygon class="f" points="72.66 27.45 67.38 29.61 68.64 27.45 67.38 25.3 72.66 27.45"/><line class="g" x1="24.43" y1="14.69" x2="15.4" y2="14.69"/><polygon class="h" points="11.66 14.69 16.94 12.53 15.69 14.69 16.94 16.84 11.66 14.69"/><g class="i"><path d="M46.49,39.38c0-1.15-.08-2.57-.08-2.85s.73-.2,1.06-.22a3.27,3.27,0,0,0,2.06-.73,2.5,2.5,0,0,0,.72-1.77c0-1.2-.76-1.86-2.61-1.86H44.73l-.08.07v.21c.43.06.81.16.84.61,0,.67.06,1.33.06,2,0,1.6-.06,3.19-.08,4.77l.08.08.94-.31m.72-7c1,0,2,.34,2,1.51s-1.07,2-2.64,2a.12.12,0,0,1-.12-.13c0-1,0-2.26.06-3.26a.11.11,0,0,1,.11-.12Z" transform="translate(0 -1.89)"/><path d="M54,38.84c1.18-.11,2.12-.6,2.12-1.81,0-.85-.85-1.22-2-1.22H51.4l-.06,0V36c.1,0,.76.11.76.39,0,.5,0,1.37,0,1.5,0,1.26,0,2.54-.09,3.8l.11.08.81-.26c0-.83,0-1.68,0-2.51a.29.29,0,0,1,.19.08c.29.25,1.54,1.67,2.46,2.71l1-.23v-.08l-2.59-2.58,0-.07M52.9,38.5s0-1.57.05-2.12c0-.17,0-.23.13-.23h.39c.73,0,1.64.16,1.64,1,0,1-1,1.46-2.12,1.46C52.92,38.63,52.9,38.55,52.9,38.5Z" transform="translate(0 -1.89)"/><path class="j" d="M50.63,36.92Z" transform="translate(0 -1.89)"/></g><polygon class="k" points="50.13 35.68 50.13 35.68 50.13 35.68 50.13 35.68 50.13 35.68 50.13 35.68 50.13 35.68 50.13 35.68 50.13 35.68 50.13 35.68 50.13 35.68 50.13 35.68 50.13 35.68 50.13 35.68 50.13 35.68 50.13 35.68 50.13 35.68 50.13 35.68 50.13 35.68 50.13 35.68 50.13 35.68 50.13 35.68 50.13 35.68 50.13 35.68 50.13 35.68 50.13 35.68 50.13 35.68 50.13 35.68 50.13 35.68 50.13 35.68 50.13 35.68 50.13 35.68 50.13 35.68 50.13 35.68 50.13 35.68 50.13 35.68 50.13 35.68 50.13 35.68 50.13 35.68 50.13 35.68 50.13 35.68 50.13 35.68 50.13 35.68 50.13 35.68 50.13 35.68 50.13 35.68 50.13 35.68 50.13 35.68 50.13 35.68 50.13 35.68 50.13 35.68 50.13 35.68 50.13 35.68 50.13 35.68 50.13 35.68 50.13 35.68 50.13 35.68 50.13 35.68 50.13 35.68 50.13 35.68 50.13 35.68 50.13 35.68 50.13 35.68 50.13 35.68 50.13 35.68 50.13 35.68 50.13 35.68 50.13 35.68 50.13 35.68 50.13 35.68 50.13 35.68 50.13 35.68 50.13 35.68 50.13 35.68 50.13 35.68 50.13 35.68 50.13 35.68 50.13 35.68 50.13 35.68 50.13 35.68 50.13 35.68 50.13 35.68 50.13 35.68 50.13 35.68 50.13 35.68 50.13 35.68 50.13 35.68 50.13 35.68 50.13 35.68 50.13 35.68 50.13 35.68 50.13 35.68 50.13 35.68 50.13 35.68 50.13 35.68 50.13 35.68 50.13 35.68 50.13 35.68 50.13 35.68 50.13 35.68 50.13 35.68 50.13 35.68 50.13 35.68 50.13 35.68 50.13 35.68 50.13 35.68 50.13 35.68 50.13 35.68 50.13 35.68 50.13 35.68 50.13 35.68 50.13 35.68 50.13 35.68 50.13 35.68 50.13 35.68 50.13 35.68 50.13 35.68 50.13 35.68 50.13 35.68 50.13 35.68 50.13 35.68 50.13 35.68 50.13 35.68 50.13 35.68 50.13 35.68 50.13 35.68 50.13 35.68 50.13 35.68 50.13 35.68 50.13 35.68 50.13 35.68 50.13 35.68 50.13 35.68 50.13 35.68 50.13 35.68"/><g class="l"><path d="M49.34,5.94c1,1.12,2,2.26,3,3.36v.1l-1,.27c-1-1.19-2.11-2.58-3-3.54a.28.28,0,0,0-.17-.07c0,1.09,0,2.19.05,3.28l-.94.33-.12-.1c.09-1.65.1-3.31.1-4.95,0-.17,0-1.31,0-1.95a.35.35,0,0,0-.26-.34l-.61-.17V1.89H49.5A4.27,4.27,0,0,1,50.63,2a1.48,1.48,0,0,1,.73.39,1.52,1.52,0,0,1,.44,1.06,2.35,2.35,0,0,1-.7,1.67,2.71,2.71,0,0,1-1.74.69Zm-1.1-.38c.15,0,.29,0,.43,0A2.16,2.16,0,0,0,50.11,5a1.9,1.9,0,0,0,.58-1.33,1.32,1.32,0,0,0-.37-.92,1.33,1.33,0,0,0-.6-.31,3.63,3.63,0,0,0-.93-.1h-.33a.25.25,0,0,0-.23.19,2.76,2.76,0,0,0-.07.49c0,.79,0,2.38,0,2.39S48.16,5.56,48.24,5.56Z" transform="translate(0 -1.89)"/></g><line class="g" x1="74.54" y1="14.69" x2="83.57" y2="14.69"/><polygon class="h" points="87.31 14.69 82.04 16.84 83.29 14.69 82.04 12.53 87.31 14.69"/><g class="m"><path d="M10.06,29.22a5.77,5.77,0,0,1-1.63.36A2.09,2.09,0,0,1,7,28.89a11.6,11.6,0,0,1-1.14-1.38,2.76,2.76,0,0,1-2.18-.78,4,4,0,0,1-1-2.86,4.64,4.64,0,0,1,1.17-3.36,4.09,4.09,0,0,1,2.91-1.1,3.36,3.36,0,0,1,2.39.86,3.87,3.87,0,0,1,.95,2.79A6.26,6.26,0,0,1,9.81,25,3.47,3.47,0,0,1,9,26.38a3.94,3.94,0,0,1-2,1c.24.33.47.66.72,1a1.43,1.43,0,0,0,.19.24,1.73,1.73,0,0,0,1.23.51c.08,0,.61-.1.92-.16Zm-2-2.87a3.8,3.8,0,0,0,1-2.78,5.69,5.69,0,0,0-.26-1.74A3.28,3.28,0,0,0,8,20.55a2.32,2.32,0,0,0-1.67-.63,2.47,2.47,0,0,0-1.77.64,3,3,0,0,0-.69,1.22,5.84,5.84,0,0,0-.24,1.76,3.81,3.81,0,0,0,1,2.74A2.3,2.3,0,0,0,6.26,27,2.47,2.47,0,0,0,8.09,26.35Z" transform="translate(0 -1.89)"/><path d="M14.49,26.6c.86.85,1.7,1.72,2.57,2.56v.07l-.86.21c-.85-.91-1.82-2-2.58-2.69a.25.25,0,0,0-.15-.06c0,.83,0,1.67,0,2.5l-.81.25-.12-.08c.09-1.25.1-2.51.1-3.76,0-.13,0-1,0-1.49a.28.28,0,0,0-.22-.26l-.52-.13v-.2h2.71a4,4,0,0,1,1,.11,1.42,1.42,0,0,1,.62.29,1.08,1.08,0,0,1,.39.81A1.68,1.68,0,0,1,16,26a2.53,2.53,0,0,1-1.5.53Zm-.94-.29c.12,0,.25,0,.37,0a2,2,0,0,0,1.24-.42,1.38,1.38,0,0,0,.49-1,.92.92,0,0,0-.32-.7,1.13,1.13,0,0,0-.51-.23,3.47,3.47,0,0,0-.79-.08h-.29c-.09,0-.19.06-.2.15a1.59,1.59,0,0,0-.06.37c0,.61,0,1.82,0,1.82S13.48,26.31,13.55,26.31Z" transform="translate(0 -1.89)"/></g><g class="n"><path d="M92.12,29.22a5.71,5.71,0,0,1-1.62.36,2.12,2.12,0,0,1-1.42-.69A11.52,11.52,0,0,1,88,27.51a2.76,2.76,0,0,1-2.18-.78,4,4,0,0,1-1-2.86,4.68,4.68,0,0,1,1.17-3.36,4.09,4.09,0,0,1,2.92-1.1,3.34,3.34,0,0,1,2.38.86,3.88,3.88,0,0,1,1,2.79A6,6,0,0,1,91.87,25a3.45,3.45,0,0,1-.79,1.39,4,4,0,0,1-2,1c.24.33.46.66.71,1a2.31,2.31,0,0,0,.2.24,1.73,1.73,0,0,0,1.22.51c.08,0,.62-.1.92-.16Zm-2-2.87a3.79,3.79,0,0,0,1-2.78,5.4,5.4,0,0,0-.26-1.74,3.16,3.16,0,0,0-.76-1.28,2.31,2.31,0,0,0-1.67-.63,2.5,2.5,0,0,0-1.77.64A3.16,3.16,0,0,0,86,21.78a6.18,6.18,0,0,0-.24,1.76,3.85,3.85,0,0,0,1,2.74,2.32,2.32,0,0,0,1.58.73A2.51,2.51,0,0,0,90.16,26.35Z" transform="translate(0 -1.89)"/><path d="M96.56,26.6c.86.85,1.69,1.72,2.57,2.56v.07l-.87.21c-.84-.91-1.81-2-2.57-2.69a.28.28,0,0,0-.16-.06c0,.83,0,1.67,0,2.5l-.81.25-.11-.08c.09-1.25.1-2.51.1-3.76,0-.13,0-1,0-1.49a.28.28,0,0,0-.22-.26L94,23.72v-.2H96.7a3.9,3.9,0,0,1,1,.11,1.46,1.46,0,0,1,.63.29,1.08,1.08,0,0,1,.39.81A1.69,1.69,0,0,1,98.07,26a2.52,2.52,0,0,1-1.49.53Zm-.94-.29c.12,0,.24,0,.37,0a2,2,0,0,0,1.24-.42,1.38,1.38,0,0,0,.49-1,.92.92,0,0,0-.32-.7,1.13,1.13,0,0,0-.51-.23,3.56,3.56,0,0,0-.8-.08h-.28a.22.22,0,0,0-.21.15,2.35,2.35,0,0,0,0,.37c0,.61,0,1.82,0,1.82S95.54,26.31,95.62,26.31Z" transform="translate(0 -1.89)"/></g></svg>